PathFileType	4	(X/Y/Z)	Patient4_TMGait_0pt5_02_left_20.trc.trc
DataRate	CameraRate	NumFrames	NumMarkers	Units	OrigDataRate	OrigDataStartFrame	OrigNumFrames
80.459770114943	80.459770114943	5	33	mm	80.459770114943	36	       141
Frame#	Time	Sacral			L.Shoulder			Chest			R.Shoulder			Neck			R.ASIS			L.ASIS			R.Thigh.Superior			R.Thigh.Lateral			R.Thigh.Inferior			R.Patella			L.Thigh.Superior			L.Thigh.Lateral			L.Thigh.Inferior			L.Patella			L.Shank.Superior			L.Shank.Lateral			L.Shank.Inferior			R.Shank.Superior			R.Shank.Lateral			R.Shank.Inferior			R.Heel			R.Midfoot.Superior			R.Midfoot.Lateral			R.Toe			L.Heel			L.Midfoot.Lateral			L.Midfoot.Superior			L.Toe			L.Elbow			L.Wrist			R.Elbow			R.Wrist			
		X1	Y1	Z1	X2	Y2	Z2	X3	Y3	Z3	X4	Y4	Z4	X5	Y5	Z5	X6	Y6	Z6	X7	Y7	Z7	X8	Y8	Z8	X9	Y9	Z9	X10	Y10	Z10	X11	Y11	Z11	X12	Y12	Z12	X13	Y13	Z13	X14	Y14	Z14	X15	Y15	Z15	X16	Y16	Z16	X17	Y17	Z17	X18	Y18	Z18	X19	Y19	Z19	X20	Y20	Z20	X21	Y21	Z21	X22	Y22	Z22	X23	Y23	Z23	X24	Y24	Z24	X25	Y25	Z25	X26	Y26	Z26	X27	Y27	Z27	X28	Y28	Z28	X29	Y29	Z29	X30	Y30	Z30	X31	Y31	Z31	X32	Y32	Z32	X33	Y33	Z33	

36	25.775000000000	577.250349420991	1009.427906385645	481.001910858536	755.400464283539	1424.075778476576	284.126785889679	865.641439000397	1355.124137028415	440.140289268258	795.455613172151	1437.850516657909	616.644298504862	765.667256618297	1488.951138984947	432.972216807386	802.440477540034	934.974511864695	590.847965592825	783.492314182941	952.564577970429	317.223792733937	823.344876428420	724.497711202212	563.944888973761	734.637313200030	622.887297110946	629.002946996137	804.282338918990	559.294776241501	549.802413362827	790.985245207750	456.628322960755	564.857019415158	849.377664205255	760.245242085914	344.190820455606	777.018993564943	638.587356424257	280.000062794796	873.347137225120	570.202133301828	339.601552423784	882.745580134237	497.961443287944	344.874274819151	858.334215506658	423.974214545702	335.208267282920	772.774526834282	306.891883488397	284.373491092618	832.949034029677	196.659263755104	349.145102344588	725.307367740342	385.117422564129	572.524548707009	617.705227223842	321.961699944772	636.254193151605	619.304671546881	215.123033031700	581.519572899758	430.895336342097	101.875779721172	556.957389175161	609.165178240388	107.957482091945	599.385465808208	506.306994811410	73.097233125433	633.966499209594	706.390789208443	35.611279626809	634.140152976920	712.111491059703	37.686110504739	390.311490225618	783.603996951218	34.925549373389	307.337986489572	866.651368600189	97.227328168128	331.176204993059	994.349791510564	47.150736624940	298.886887442389	670.680890829515	1079.055069027031	173.219103285419	715.250616543445	820.588263216766	165.166692587454	880.519240932103	1111.116272385306	737.185930575091	1101.101411942252	1176.636879956779	643.533136911762	
37	25.787428571429	577.172782127405	1010.085103428605	477.949421531359	756.141873786962	1424.736310619192	281.422070254591	865.555294058537	1356.181965458136	438.157814019819	794.380547065439	1439.220640200687	614.061126744198	765.502431592224	1489.833823164126	430.160351792945	802.210988914798	936.128290374534	588.785540982648	784.173160204551	953.616190654882	315.029123926022	827.090225005078	726.533721477713	561.899718230148	740.545836017025	623.363250446711	626.919789033735	812.121059044798	560.614757712084	548.331533182420	799.801828717502	456.569571343949	564.436903522350	848.672170998755	759.688552200919	341.679428262346	774.844917327227	638.504826721870	278.607947512767	870.489922446636	569.387721383654	338.368634582318	879.237125976795	497.310989323870	344.195093249191	854.385733454692	423.481729920610	334.569801507050	768.252191811589	306.820942510559	283.904623177432	827.468866306379	196.387092549537	349.049975977781	732.012127496798	385.943378303371	571.712626243095	622.125127449198	326.077919141597	634.691759445079	621.330654219150	218.856872816264	580.815010255966	429.818245189481	112.488474741528	555.453370188205	607.868339909370	110.159400332658	599.011759655703	503.289045093463	80.294042552327	632.867402745812	700.797289409868	35.082969383568	634.013948675145	705.910489496990	37.668851811132	390.268192794854	777.393009482591	34.959490125171	307.304148504324	860.463174348925	97.187340525811	331.210584420294	988.185785193397	46.999423821984	298.819908933622	677.216461193261	1078.473736305727	169.114078819173	725.206379104424	820.719692050868	161.228495452251	875.537727997950	1111.637701077468	736.142106970978	1098.004798604199	1172.358752279836	643.599380739666	
38	25.799857142857	576.963921193327	1010.625486782155	474.984667717506	756.881589018477	1425.397005362164	278.929194604195	865.426597312759	1357.156354811642	436.377978303950	793.232962035420	1440.396929724497	611.724161262016	765.325212236367	1490.643670401855	427.582152452561	801.951775964337	937.176443406433	586.724189241927	784.701960671708	954.592280131717	312.866296623003	830.928207868819	728.675844842577	559.865732868771	746.639147456534	623.965656552061	624.897382749948	820.121824038315	562.141780703683	546.893612336517	808.819573640020	456.841433865820	563.903735847229	847.719696945789	759.043035523960	339.271059008319	772.553030730484	638.408317620568	277.192516084401	867.433451307492	568.557001355834	337.209009089016	875.488160743969	496.622409561712	343.503523405790	850.237540644489	422.960653257417	333.914722876211	763.585539762978	306.679021702306	283.410976941239	821.899206876746	196.080524042552	348.947698376307	739.068434729302	386.977818837751	570.846615228177	627.036276140129	330.424759113708	633.067393258744	623.863230840551	222.882408368865	580.022095579133	429.612110722729	123.774911215293	553.704501541616	606.918992469193	112.580929350119	598.493025663548	500.796806925010	88.119264143036	631.592317200945	695.172304143302	34.471335801955	633.870949627218	699.647158421241	37.649579021585	390.230493682017	771.124856155367	34.959179780612	307.280585765907	854.250759639277	97.087982298967	331.248782096933	981.986871924143	46.708002847033	298.769205562665	683.701856695738	1078.091876605119	165.016741145954	735.739659502356	821.193666010974	157.346531156007	869.972854370388	1111.759162677170	735.156714011011	1094.612992368036	1166.665672711868	644.002267417418	
39	25.812285714286	576.650945366909	1011.039241801461	472.131192525892	757.596486082019	1426.047644497838	276.661655593207	865.257752568862	1358.035902016394	434.799109524409	792.026554145211	1441.364280828170	609.646006476750	765.131453437155	1491.370340143001	425.256027555295	801.669754661828	938.094146735584	584.641354905561	785.087019110216	955.474011099195	310.720597650339	834.788545686594	730.907390052238	557.827683997423	752.841129613038	624.701721849474	622.934951173181	828.171029791659	563.885642705861	545.457026881891	817.948974775124	457.447913757019	563.215562833754	846.600042375650	758.358998401107	336.987934998236	770.243650495970	638.314442550732	275.738310070289	864.268424218239	567.731518803529	336.109823713493	871.600314752097	495.910444245981	342.787726028291	845.986206256351	422.415086676867	333.238628036151	758.863917996035	306.481531957223	282.868236761803	816.294425929630	195.746346613409	348.833739181879	746.388802680502	388.226131833413	569.895923747726	632.375254295823	334.973649541169	631.385991748951	626.860811085094	227.170660387178	579.132686026468	430.311527418059	135.629363647923	551.711961294482	606.298713964019	115.245310074369	597.829366230817	498.872346353521	96.526909639009	630.138870532325	689.519793269719	33.751464131170	633.725865234954	693.348160286691	37.632443929912	390.194719273449	764.824914304122	34.935499208971	307.262563662398	848.031452328537	96.948794536101	331.288511113633	975.770590631924	46.321165605882	298.733093605136	690.100784964865	1077.907120272164	160.948136807356	746.803843563116	822.030197876787	153.538890428334	863.854527058832	1111.475119797223	734.191023619665	1090.883035331263	1159.505396993630	644.739460440639	
40	25.824714285714	576.265245885649	1011.336332260684	469.406121637728	758.268524993671	1426.690482839841	274.628294984412	865.055882269929	1358.818281260221	433.413569804881	790.784660161355	1442.120830775169	607.831205996091	764.925304751961	1492.014397750186	423.196440660233	801.361035208598	938.874399889414	582.519886788892	785.342231033282	956.254163430211	308.580480083972	838.604832440945	733.222347959656	555.769245470293	759.088007697429	625.581101178395	621.029309232237	836.173113583964	565.860372876472	543.986705800643	827.123545313485	458.388137219584	562.343385873855	845.392799355411	757.675377800483	334.838518336809	767.974417728704	638.229969924602	274.250401530973	861.059877484849	566.921107924831	335.057069484811	867.650595196115	495.187620566754	342.050174358167	841.701770369761	421.851909399264	332.545321559411	754.146021839718	306.247082473525	282.271136445193	810.692590908744	195.394571589614	348.707431611015	753.903210508771	389.696058321999	568.837192631165	638.084319383724	339.699556504676	629.652268753812	630.289141218770	231.691925879658	578.142894839392	431.931288247248	147.920709057055	549.483131374590	606.009456509071	118.172193688521	597.028741178405	497.558140531739	105.443860490159	628.507312918937	683.875768091556	32.923251905822	633.591103075834	687.036031915583	37.619529294746	390.158317939331	758.514089834369	34.898787636306	307.246241722039	841.815718647859	96.790779234091	331.327401486277	969.549066502293	45.889827405582	298.708636328854	696.386638851632	1077.923991815724	156.932493839598	758.343706560708	823.259712387260	149.823401345662	857.214978316594	1110.799563726451	733.201583943267	1086.758736611487	1150.841917839759	645.809388740292	
